<svg width="13" height="21" viewBox="0 0 13 21" fill="none" xmlns="http://www.w3.org/2000/svg">
<path d="M8.27669 5.76353V7.88098H11.4929L10.9749 11.4029H8.27669V19.7174C7.73721 19.786 7.18698 19.8191 6.62932 19.8191C5.91799 19.8191 5.22154 19.7645 4.54078 19.658V11.4029H1.46167L1.52281 7.88098H4.5416V4.83492C4.5416 2.57619 6.57397 -0.0881847 11.4938 1.0197V3.97736L10.0009 4.00463C8.97067 4.02446 8.27752 4.73082 8.27752 5.76353H8.27669Z" fill="white"/>
<path d="M6.62844 20.5792C5.88737 20.5792 5.14548 20.5222 4.42258 20.409L3.77982 20.3082V12.163H0.6875L0.774241 7.12097H3.77982V4.83497C3.77982 3.41314 4.41928 2.08632 5.53542 1.19407C6.55656 0.376993 8.44765 -0.445037 11.6598 0.278683L12.253 0.412521V4.72426L10.0141 4.76557C9.40187 4.77714 9.0367 5.15056 9.0367 5.7644V7.12179H12.3728L11.6309 12.1639H9.0367V20.3883L8.37248 20.4726C7.80655 20.5445 7.2208 20.58 6.62926 20.58L6.62844 20.5792ZM5.29997 18.9905C6.03443 19.0665 6.78871 19.0789 7.51573 19.0285V10.6429H10.3173L10.6122 8.64111H7.51573V5.76357C7.51573 4.3087 8.53109 3.27352 9.98514 3.24543L10.732 3.23139V1.64432C8.93013 1.34195 7.46947 1.5931 6.48386 2.38126C5.73122 2.98354 5.29914 3.87827 5.29914 4.83579V8.64194H2.26712L2.23242 10.6437H5.29831V18.9913L5.29997 18.9905Z" fill="white"/>
</svg>
