<svg width="21" height="21" viewBox="0 0 21 21" fill="none" xmlns="http://www.w3.org/2000/svg">
<g clip-path="url(#clip0_142_805)">
<path fill-rule="evenodd" clip-rule="evenodd" d="M6.33574 0.613525C3.33053 0.613525 0.878906 3.06514 0.878906 6.07037V13.9563C0.878906 16.9614 3.33053 19.4131 6.33574 19.4131H14.2216C17.2269 19.4131 19.6784 16.9614 19.6784 13.9563V6.07037C19.6784 3.06514 17.2269 0.613525 14.2216 0.613525H6.33574ZM6.33585 2.05929H14.2217C16.4445 2.05929 18.2325 3.84434 18.2325 6.07001V13.9559C18.2325 16.1787 16.4474 17.9666 14.2217 17.9666H6.33585C4.11301 17.9666 2.32514 16.1815 2.32514 13.9559V6.07001C2.32514 3.84717 4.11018 2.05929 6.33585 2.05929ZM15.7016 3.50631C15.1028 3.50631 14.617 3.99211 14.617 4.59089C14.617 5.18969 15.1028 5.67549 15.7016 5.67549C16.3003 5.67549 16.7861 5.18969 16.7861 4.59089C16.7861 3.99211 16.3003 3.50631 15.7016 3.50631ZM10.2783 4.9521C7.49058 4.9521 5.2169 7.2258 5.2169 10.0135C5.2169 12.8013 7.49058 15.0749 10.2783 15.0749C13.0661 15.0749 15.3397 12.8013 15.3397 10.0135C15.3397 7.2258 13.0661 4.9521 10.2783 4.9521ZM10.2786 6.39791C12.284 6.39791 13.8939 8.00785 13.8939 10.0132C13.8939 12.0186 12.284 13.6285 10.2786 13.6285C8.27323 13.6285 6.66329 12.0186 6.66329 10.0132C6.66329 8.00785 8.27323 6.39791 10.2786 6.39791Z" fill="white"/>
</g>
<defs>
<clipPath id="clip0_142_805">
<rect width="20.5625" height="20.5625" fill="white" transform="translate(0 0.00878906)"/>
</clipPath>
</defs>
</svg>
