<svg width="21" height="21" viewBox="0 0 21 21" fill="none" xmlns="http://www.w3.org/2000/svg">
<g clip-path="url(#clip0_142_811)">
<path fill-rule="evenodd" clip-rule="evenodd" d="M3.22533 0.00878906C1.89196 0.00878906 0.810303 1.11321 0.810303 2.47688C0.810303 3.84054 1.89109 4.97052 3.22355 4.97052C4.55599 4.97052 5.63857 3.84054 5.63857 2.47688C5.63857 1.11414 4.5587 0.00878906 3.22533 0.00878906ZM15.0077 6.55141C12.9798 6.55141 11.8195 7.63602 11.2629 8.71462H11.204V6.84165H7.20753V20.5713H11.3718V13.775C11.3718 11.9841 11.504 10.2535 13.6708 10.2535C15.8065 10.2535 15.8377 12.2954 15.8377 13.8881V20.5713H20.002V13.0301C20.002 9.34009 19.2262 6.55141 15.0077 6.55141ZM1.1423 6.84165V20.5713H5.31013V6.84165H1.1423Z" fill="white"/>
</g>
<defs>
<clipPath id="clip0_142_811">
<rect width="20.5625" height="20.5625" fill="white" transform="translate(0.125 0.00878906)"/>
</clipPath>
</defs>
</svg>
