<svg width="22" height="21" viewBox="0 0 22 21" fill="none" xmlns="http://www.w3.org/2000/svg">
<g clip-path="url(#clip0_142_808)">
<path fill-rule="evenodd" clip-rule="evenodd" d="M21.125 2.42798C20.3231 2.88297 18.714 3.50306 17.7681 3.68192C17.7404 3.68879 17.7178 3.69763 17.6911 3.70451C16.8551 2.91638 15.7098 2.42798 14.4422 2.42798C11.8873 2.42798 9.81563 4.40814 9.81563 6.85015C9.81563 6.97888 9.80432 7.21571 9.81563 7.34151C6.36832 7.34151 3.74455 5.61588 1.86308 3.41068C1.65848 3.90203 1.56903 4.67838 1.56903 5.40755C1.56903 6.78431 2.69483 8.13652 4.44778 8.97476C4.12495 9.05435 3.76922 9.11136 3.3991 9.11136C2.80176 9.11136 2.16946 8.961 1.59063 8.50503C1.59063 8.52174 1.59063 8.53746 1.59063 8.55514C1.59063 10.4793 3.72707 11.7892 5.62704 12.1538C5.2415 12.371 4.46423 12.3926 4.08486 12.3926C3.81754 12.3926 2.87167 12.2757 2.61875 12.2305C3.14721 13.8077 5.05335 14.6941 6.87005 14.7256C5.44918 15.7908 4.46321 16.1859 1.55361 16.1859H0.5625C2.40079 17.3121 4.74183 18.1522 7.08801 18.1522C14.7269 18.1522 19.0688 12.5872 19.0688 7.34151C19.0688 7.257 19.0667 7.0801 19.0635 6.90223C19.0635 6.88455 19.0688 6.86785 19.0688 6.85015C19.0688 6.82362 19.0605 6.79807 19.0605 6.77154C19.0575 6.63788 19.0544 6.51308 19.0512 6.44823C19.8634 5.88808 20.5678 5.18938 21.125 4.39339C20.3795 4.70982 19.5797 4.92209 18.7397 5.01839C19.5972 4.52703 20.8156 3.35565 21.125 2.42798Z" fill="white"/>
</g>
<defs>
<clipPath id="clip0_142_808">
<rect width="20.5625" height="20.5625" fill="white" transform="translate(0.5625 0.00878906)"/>
</clipPath>
</defs>
</svg>
