<svg width="30" height="21" viewBox="0 0 30 21" fill="none" xmlns="http://www.w3.org/2000/svg">
<path fill-rule="evenodd" clip-rule="evenodd" d="M29.3854 4.74651C29.4619 5.13962 29.5289 5.53541 29.5866 5.92987H29.5853C29.8871 9.74427 29.9072 10.132 29.9099 10.2742C29.9099 10.4245 29.9086 10.5761 29.9059 10.7277C29.9059 10.8431 29.9032 10.9572 29.8992 11.0699C29.8697 12.2774 29.765 13.4809 29.5853 14.6776C29.5276 15.0748 29.4605 15.4692 29.384 15.861C29.3344 16.124 29.2807 16.3856 29.223 16.6472L29.0995 17.094C29.0942 17.1101 29.0885 17.1262 29.0828 17.1423C29.0771 17.1584 29.0714 17.1745 29.066 17.1906C29.0499 17.2349 29.0339 17.2765 29.0164 17.3194C28.9963 17.3717 28.9735 17.4241 28.9493 17.475C28.6931 18.0426 28.3174 18.5229 27.8491 18.912C27.5083 19.1964 27.1193 19.4326 26.6913 19.6177C26.6779 19.6231 26.6644 19.6298 26.651 19.6365C26.4497 19.725 26.2391 19.8042 26.0217 19.8633C26.0132 19.8654 26.0049 19.8676 25.9966 19.8699C25.9789 19.8747 25.9618 19.8793 25.9453 19.882C25.7373 19.937 25.5199 19.9786 25.2959 19.9988C18.2668 20.6656 11.6698 20.8749 4.98281 19.9988C4.01411 19.8726 3.13536 19.4835 2.44841 18.908C1.96004 18.4974 1.56827 17.9889 1.30798 17.3905C1.27176 17.306 1.23553 17.2188 1.20467 17.1289C1.14698 16.9639 1.09733 16.7921 1.05976 16.6177C1.00207 16.3561 0.948374 16.0958 0.898732 15.8315C0.822256 15.4384 0.755172 15.0426 0.697479 14.6481C0.395601 10.8337 0.375486 10.446 0.372803 10.3037V10.2742V10.2712C0.372803 10.13 0.372803 9.99147 0.376799 9.85026C0.376799 9.73487 0.379522 9.62084 0.383547 9.50814C0.413064 8.30062 0.517694 7.09713 0.697479 5.90035C0.755172 5.50321 0.822256 5.10877 0.898732 4.717C0.948374 4.45403 1.00207 4.19238 1.05976 3.93076L1.18318 3.48398L1.21673 3.38738C1.23283 3.34311 1.24894 3.30152 1.26638 3.25859C1.28651 3.20626 1.30932 3.15393 1.33347 3.10295C1.58973 2.53542 1.96536 2.05508 2.43361 1.66599C2.80525 1.35607 3.23325 1.10517 3.70821 0.91197C3.72431 0.905261 3.74042 0.898566 3.75787 0.891857C3.95509 0.808673 4.16169 0.737559 4.37636 0.685233C4.57359 0.636932 4.77753 0.59936 4.98818 0.579235C12.0173 -0.0848979 18.617 -0.2942 25.3012 0.579235C26.2726 0.706695 27.1488 1.09444 27.8357 1.67002C28.3241 2.08058 28.7158 2.58908 28.9761 3.18747C29.0124 3.272 29.0486 3.3592 29.0794 3.4491C29.1371 3.61412 29.1868 3.78587 29.2243 3.96028C29.282 4.22191 29.3357 4.4822 29.3854 4.74651ZM19.5938 10.3198C19.6166 10.3077 19.6166 10.2755 19.5938 10.2621L15.8881 8.12211L12.1823 5.98212C12.1609 5.97004 12.1327 5.98614 12.1327 6.01163V14.5702C12.1327 14.5971 12.1595 14.6132 12.1823 14.5997L15.8881 12.4598L19.5938 10.3198Z" fill="white"/>
</svg>
